# Blender 5.2.1 LTS
# www.blender.org
mtllib metallicTest.mtl
o Cube
v 24.901072 58.542480 -94.365799
v 24.901072 57.698429 -94.365799
v 24.901072 58.743050 -44.563660
v 24.901072 57.698429 -44.563660
v -24.901072 58.312366 -94.365799
v -24.901072 57.698429 -94.365799
v -24.901072 58.862103 -44.563660
v -24.901072 57.698429 -44.563660
v 0.000000 59.151863 -44.563660
v 24.901072 59.151863 -69.464729
v -24.901072 58.893642 -69.464729
v 0.000000 58.959778 -94.365799
v 0.000000 59.386406 -69.464729
v -12.450536 58.862103 -44.563660
v 24.901072 58.743050 -57.014194
v -24.901072 58.312366 -81.915268
v 12.450536 58.350395 -94.365799
v 12.450536 58.743050 -44.563660
v 24.901072 58.542480 -81.915268
v -24.901072 58.603882 -57.014194
v -12.450536 58.312366 -94.365799
v 0.000000 60.327126 -57.014194
v 0.000000 58.959778 -81.915268
v 12.450536 60.327126 -69.464729
v -12.450536 58.893642 -69.464729
v -12.450536 58.312366 -81.915268
v 12.450536 58.350395 -81.915268
v 12.450536 59.918312 -57.014194
v -12.450536 58.603882 -57.014194
vn -0.0000 0.9998 -0.0207
vn -0.0000 -0.0000 1.0000
vn -1.0000 -0.0000 -0.0000
vn -0.0000 -1.0000 -0.0000
vn 1.0000 -0.0000 -0.0000
vn -0.0000 -0.0000 -1.0000
vn 0.0327 0.9950 0.0939
vn -0.0132 0.9953 -0.0961
vn -0.0000 0.9989 -0.0466
vn -0.0457 0.9981 -0.0404
vn -0.0519 0.9987 -0.0000
vn -0.0000 1.0000 -0.0000
vn 0.0392 0.9939 -0.1032
vn -0.0154 0.9999 -0.0000
vn 0.0489 0.9988 -0.0000
vn 0.0471 0.9978 0.0471
vn 0.0939 0.9950 0.0327
vn -0.0214 0.9995 -0.0214
vn -0.0805 0.9961 0.0367
vn -0.0886 0.9957 -0.0260
vn -0.0000 0.9997 0.0233
vt 0.812500 0.687500
vt 0.875000 0.687500
vt 0.875000 0.750000
vt 0.812500 0.750000
vt 0.375000 0.750000
vt 0.625000 0.750000
vt 0.625000 0.812500
vt 0.625000 0.875000
vt 0.625000 0.937500
vt 0.625000 1.000000
vt 0.375000 1.000000
vt 0.375000 0.000000
vt 0.625000 0.000000
vt 0.625000 0.062500
vt 0.625000 0.125000
vt 0.625000 0.187500
vt 0.625000 0.250000
vt 0.375000 0.250000
vt 0.125000 0.500000
vt 0.375000 0.500000
vt 0.125000 0.750000
vt 0.625000 0.500000
vt 0.625000 0.562500
vt 0.625000 0.625000
vt 0.625000 0.687500
vt 0.625000 0.312500
vt 0.625000 0.375000
vt 0.625000 0.437500
vt 0.687500 0.687500
vt 0.750000 0.687500
vt 0.750000 0.750000
vt 0.687500 0.750000
vt 0.687500 0.562500
vt 0.750000 0.562500
vt 0.750000 0.625000
vt 0.687500 0.625000
vt 0.812500 0.562500
vt 0.875000 0.562500
vt 0.875000 0.625000
vt 0.812500 0.625000
vt 0.750000 0.500000
vt 0.812500 0.500000
vt 0.875000 0.500000
vt 0.687500 0.500000
s 0
usemtl Material
f 29/1/1 20/2/1 7/3/1 14/4/1
f 4/5/2 3/6/2 18/7/2 9/8/2 14/9/2 7/10/2 8/11/2
f 8/12/3 7/13/3 20/14/3 11/15/3 16/16/3 5/17/3 6/18/3
f 6/19/4 2/20/4 4/5/4 8/21/4
f 2/20/5 1/22/5 19/23/5 10/24/5 15/25/5 3/6/5 4/5/5
f 6/18/6 5/17/6 21/26/6 12/27/6 17/28/6 1/22/6 2/20/6
f 28/29/7 22/30/7 9/31/7 18/32/7
f 27/33/8 23/34/8 13/35/8 24/36/8
f 26/37/9 16/38/9 11/39/9 25/40/9
f 23/34/10 26/37/10 25/40/10 13/35/10
f 12/41/11 21/42/11 26/37/11 23/34/11
f 21/42/12 5/43/12 16/38/12 26/37/12
f 19/23/13 27/33/13 24/36/13 10/24/13
f 1/22/14 17/44/14 27/33/14 19/23/14
f 17/44/15 12/41/15 23/34/15 27/33/15
f 15/25/16 28/29/16 18/32/16 3/6/16
f 10/24/17 24/36/17 28/29/17 15/25/17
f 24/36/18 13/35/18 22/30/18 28/29/18
f 22/30/19 29/1/19 14/4/19 9/31/19
f 13/35/20 25/40/20 29/1/20 22/30/20
f 25/40/21 11/39/21 20/2/21 29/1/21
